<svg xmlns="http://www.w3.org/2000/svg" version="1.1" xmlns:xlink="http://www.w3.org/1999/xlink" xmlns:svgjs="http://svgjs.dev/svgjs" width="100%" height="100%" viewBox="0 0 1000 600"><rect width="1000" height="600" x="0" y="0" fill="#ea580c"/><g><circle r="166.66666666666666" cx="375.49074808756507" cy="397.7130914436706" fill="#243665" transform="matrix(0.5985894932156961,0,0,0.5985894932156961,0,61.93308708096873)"/><path d="M240.16936115428453 472.7131106185158L240.16936115428453 472.7131106185158Q237.47182913275844 472.7131106185158 237.47182913275844 469.4129384645212L237.47182913275844 469.4129384645212Q237.47182913275844 466.71540644299506 240.16936115428453 466.71540644299506L240.16936115428453 466.71540644299506Q252.76740963779457 466.71540644299506 256.46934188010164 463.8169943773128Q260.1999712715739 460.94727946079576 260.1999712715739 454.117357959485L260.1999712715739 454.117357959485L260.1999712715739 340.8784073537203Q260.1999712715739 337.17647511141325 259.1668739016277 334.39285164239163Q258.1337765316816 331.5805310242049 253.88659845523625 330.03088496928564Q249.6681175279561 328.48123891436643 239.53802387265077 328.48123891436643L239.53802387265077 328.48123891436643Q236.84049185112468 328.48123891436643 236.84049185112468 325.38194680452796L236.84049185112468 325.38194680452796Q236.84049185112468 322.71311193216707 239.53802387265077 322.71311193216707L239.53802387265077 322.71311193216707Q241.40333856838686 322.71311193216707 257.73201644336916 322.91399197632325Q274.0319971691863 323.1148720204795 301.3229860252639 323.1148720204795L301.3229860252639 323.1148720204795Q327.351300318074 323.1148720204795 341.2981148123471 322.91399197632325Q355.2449293066202 322.71311193216707 356.6797867648787 322.71311193216707L356.6797867648787 322.71311193216707Q361.8452736146095 322.71311193216707 362.0748508079309 327.44814154442025L362.0748508079309 327.44814154442025Q362.0748508079309 328.911696151844 362.36182229958257 333.6467257640972Q362.6774909403995 338.4104525255156 362.87837098455566 344.20727665688014Q363.107948177877 349.9754036390795 363.3088282220332 354.423461759681Q363.5097082661894 358.8715198802825 363.5097082661894 359.70373720607245L363.5097082661894 359.70373720607245Q363.5097082661894 360.30637733854104 363.1940396253725 361.3394747084872Q362.87837098455566 362.3725720784334 361.4435135262971 362.3725720784334L361.4435135262971 362.3725720784334Q360.00865606803853 362.3725720784334 359.1764387422486 362.0569034376165Q358.34422141645865 361.7699319459648 357.5120040906687 360.10549729438486L357.5120040906687 360.10549729438486Q356.0771466324101 356.8053251403902 353.5804946550403 351.63983829065944Q351.11253982683553 346.4743514409286 347.2958189878678 341.30886459119785Q343.4790981489001 336.1433777414671 337.99794265835243 332.613628394151Q332.51678716780475 329.1125761960002 324.88334548986927 329.1125761960002L324.88334548986927 329.1125761960002L285.19518819443783 329.1125761960002L285.19518819443783 391.50017848108195L300.69164874363014 391.50017848108195Q309.15730774735556 391.50017848108195 313.72015446461774 387.99912628293106Q318.2543040327148 384.4980740847802 320.63616741342395 379.61955872670114Q323.01803079413315 374.7697405177872 324.6537682965479 370.4364709938464L324.6537682965479 370.4364709938464Q325.08422553402545 369.20249357974404 325.68686566649404 368.4850648506148Q326.3182029481278 367.73893897232034 327.7530604063864 367.73893897232034L327.7530604063864 367.73893897232034Q329.2166150138101 367.73893897232034 329.7331636987832 368.7720363422665Q330.2497123837562 369.80513371221264 330.2497123837562 371.06780827548016L330.2497123837562 371.06780827548016Q330.2497123837562 372.50266573373875 330.13492378709554 376.749843810184Q330.04883233960004 380.9683247374642 329.93404374293937 386.04772013969944Q329.8192551462787 391.09841839276953 329.8192551462787 395.2308078725542L329.8192551462787 395.2308078725542L329.8192551462787 420.4269048395743Q329.8192551462787 421.46000220952044 329.532283654627 422.4930995794666Q329.2166150138101 423.52619694941274 327.7530604063864 423.52619694941274L327.7530604063864 423.52619694941274Q326.3182029481278 423.52619694941274 325.68686566649404 422.72267677278796Q325.08422553402545 421.890459446998 324.4528882523917 420.4269048395743L324.4528882523917 420.4269048395743Q323.01803079413315 416.7249725972672 320.7509560100847 411.5594857475364Q318.455184076871 406.39399889780566 313.92103450877397 402.3477008655166Q309.38688494067696 398.3300999823926 300.69164874363014 398.3300999823926L300.69164874363014 398.3300999823926L285.19518819443783 398.3300999823926L285.19518819443783 454.117357959485Q285.19518819443783 458.65150752758205 286.65874280186154 461.4638281457688Q288.09360026012007 464.24745161479035 292.8573270215385 465.4814290288927Q297.59235663379167 466.71540644299506 307.3206902007846 466.71540644299506L307.3206902007846 466.71540644299506Q309.9895250731455 466.71540644299506 309.9895250731455 469.4129384645212L309.9895250731455 469.4129384645212Q309.9895250731455 472.7131106185158 307.3206902007846 472.7131106185158L307.3206902007846 472.7131106185158Q305.2544954608923 472.7131106185158 295.44007044640387 472.397441977699Q285.62564543191536 472.08177333688207 272.79801975508394 472.08177333688207L272.79801975508394 472.08177333688207Q259.79821118326146 472.08177333688207 251.01688353871916 472.397441977699Q242.23555589417683 472.7131106185158 240.16936115428453 472.7131106185158ZM372.60670455154866 472.7131106185158L372.60670455154866 472.7131106185158Q369.70829248586637 472.7131106185158 369.70829248586637 470.01557859698977L369.70829248586637 470.01557859698977Q369.70829248586637 466.71540644299506 372.60670455154866 466.71540644299506L372.60670455154866 466.71540644299506Q378.60440872706937 466.71540644299506 383.45422693598323 464.850091747259Q388.30404514489715 463.013474200688 393.35474339796724 458.04886739511346Q398.4341388002025 453.0842605895388 404.83360306403563 443.5855042158673L404.83360306403563 443.5855042158673Q406.49803771561557 441.0888522384974 409.7982098696102 436.2390340295835Q413.0983820236049 431.3892158206696 417.11598290672885 425.3915116451489Q421.16228093901793 419.39380746962814 425.09379037464635 413.51089189076805Q428.9966026611096 407.627976311908 431.69413468263565 403.49558683212337L431.69413468263565 403.49558683212337Q423.2284756789103 388.4008863712435 415.99679408928716 376.52026661686267Q408.7651124996641 364.63964686248187 404.20226578240187 357.3218738253633Q399.66811621430486 349.9754036390795 399.0367789326711 348.9423062691333L399.0367789326711 348.9423062691333Q393.26865195047174 339.04178980714937 388.10316510074097 333.87630295741855Q382.9376782510102 328.7108161076878 376.5382139871771 328.7108161076878L376.5382139871771 328.7108161076878Q375.27553942390955 328.7108161076878 374.5581106947802 327.76381018523716Q373.840681965651 326.8455014119517 373.840681965651 325.81240404200554L373.840681965651 325.81240404200554Q373.840681965651 322.71311193216707 376.5382139871771 322.71311193216707L376.5382139871771 322.71311193216707Q377.9730714454356 322.71311193216707 382.22024952188093 322.91399197632325Q386.4387304491611 323.1148720204795 392.0346745363694 323.22966061714015Q397.6019214744125 323.31575206463566 402.9682883682995 323.31575206463566L402.9682883682995 323.31575206463566Q408.9659925438203 323.31575206463566 414.64802807852413 323.22966061714015Q420.33006361322794 323.1148720204795 424.3476644963519 322.91399197632325Q428.393962528641 322.71311193216707 429.4270598985872 322.71311193216707L429.4270598985872 322.71311193216707Q432.32547196426947 322.71311193216707 432.32547196426947 325.81240404200554L432.32547196426947 325.81240404200554Q432.32547196426947 326.8455014119517 431.579346085975 327.76381018523716Q430.86191735684577 328.7108161076878 429.4270598985872 328.7108161076878L429.4270598985872 328.7108161076878Q421.3631609831741 328.7108161076878 420.33006361322794 331.1787709358925Q419.2969662432818 333.6467257640972 422.3962583531203 339.24266985130555L422.3962583531203 339.24266985130555Q423.0275956347541 340.0748871770955 426.52864783290494 345.9578027559556Q430.02970003105577 351.8407183348156 435.6256441182641 360.7368345760186Q441.1928910563073 369.60425366805646 447.5923553201404 379.7343473233618L447.5923553201404 379.7343473233618Q452.98741936319254 372.10090564542634 457.83723757210646 364.7544354591426Q462.6870557810204 357.4079652728588 466.1020165316757 352.3572670197887Q469.5169772823311 347.3065687667186 469.91873737064344 346.4743514409286L469.91873737064344 346.4743514409286Q473.6493667621157 339.84530998377414 470.75095469643344 334.27806304573096Q467.8525426307511 328.7108161076878 459.1860035828695 328.7108161076878L459.1860035828695 328.7108161076878Q457.7224489754458 328.7108161076878 456.8902316496558 327.76381018523716Q456.0867114730311 326.8455014119517 456.0867114730311 325.81240404200554L456.0867114730311 325.81240404200554Q456.0867114730311 322.71311193216707 459.1860035828695 322.71311193216707L459.1860035828695 322.71311193216707Q461.02262112944044 322.71311193216707 466.9342338574657 323.028780572984Q472.81714943632574 323.31575206463566 482.7176658983097 323.31575206463566L482.7176658983097 323.31575206463566Q491.8146621836689 323.31575206463566 497.1810290775558 323.028780572984Q502.57609312060805 322.71311193216707 504.6422878605004 322.71311193216707L504.6422878605004 322.71311193216707Q507.51200277701747 322.71311193216707 507.51200277701747 325.81240404200554L507.51200277701747 325.81240404200554Q507.51200277701747 326.8455014119517 506.79457404788815 327.76381018523716Q506.07714531875894 328.7108161076878 504.6422878605004 328.7108161076878L504.6422878605004 328.7108161076878Q497.61148631503346 328.7108161076878 490.7815648137227 333.7615143607579Q483.9803404615772 338.81221261382797 478.5852764185251 347.07699157339727L478.5852764185251 347.07699157339727Q475.9164415461642 351.0085010090257 469.2013086415141 361.5403547526434Q462.4861757368642 372.10090564542634 452.1552020374026 387.3677890012973L452.1552020374026 387.3677890012973Q459.788643715338 399.56407739649495 466.81944526080497 411.2438171067196Q473.85024680627185 422.92355681694414 479.5322823409757 432.1066445497989Q485.21431787567957 441.31842943181874 488.31360998551804 445.8525789999158L488.31360998551804 445.8525789999158Q493.8808569235612 454.117357959485 499.4768010107695 460.4307307758226Q505.04404794881276 466.71540644299506 511.0417521243334 466.71540644299506L511.0417521243334 466.71540644299506Q514.1410442341719 466.71540644299506 514.1410442341719 470.01557859698977L514.1410442341719 470.01557859698977Q514.1410442341719 472.7131106185158 511.0417521243334 472.7131106185158L511.0417521243334 472.7131106185158Q508.9755573844412 472.7131106185158 501.5429957506619 472.51223057435965Q494.0817369677174 472.31135053020347 486.24741524562575 472.31135053020347L486.24741524562575 472.31135053020347Q480.249711070105 472.31135053020347 473.93633825376736 472.397441977699Q467.6516625865949 472.51223057435965 463.08881586933273 472.59832202185515Q458.5546663012358 472.7131106185158 457.5215689312896 472.7131106185158L457.5215689312896 472.7131106185158Q454.6231568656073 472.7131106185158 454.6231568656073 470.01557859698977L454.6231568656073 470.01557859698977Q454.6231568656073 466.71540644299506 457.5215689312896 466.71540644299506L457.5215689312896 466.71540644299506Q465.15501060922503 466.71540644299506 466.3028965758319 464.04657157063417Q467.45078254243873 461.3490395491081 464.1219132392789 455.98267265522117L464.1219132392789 455.98267265522117Q460.620861041128 449.9849684797004 455.97192287637034 442.4376182492604Q451.32298471161266 434.89026801882045 446.98971518767183 427.88816362251873Q442.656445663731 420.85736207705185 439.6432450013881 416.00754386813793Q436.6587414882103 411.1290285100589 436.45786144405406 410.5263883775903L436.45786144405406 410.5263883775903Q431.49325463847947 417.5571899230572 426.64343642956555 424.78887151268026Q421.76492107148647 432.0205531023034 417.8621087850232 437.9034686811634Q413.93059934939487 443.78638426002345 411.66352456534634 447.28743645817434L411.66352456534634 447.28743645817434Q408.13377521803034 452.68250050122646 409.16687258797646 457.10186147266285Q410.19996995792263 461.5499195932643 413.93059934939487 464.1326630181297Q417.6325315917019 466.71540644299506 422.3962583531203 466.71540644299506L422.3962583531203 466.71540644299506Q425.49555046295876 466.71540644299506 425.49555046295876 470.01557859698977L425.49555046295876 470.01557859698977Q425.49555046295876 472.7131106185158 422.3962583531203 472.7131106185158L422.3962583531203 472.7131106185158Q420.5309436573842 472.7131106185158 414.2462679902118 472.51223057435965Q407.9328951738741 472.31135053020347 398.2332587560463 472.31135053020347L398.2332587560463 472.31135053020347Q389.1362624706871 472.31135053020347 381.904580881064 472.51223057435965Q374.6728992914409 472.7131106185158 372.60670455154866 472.7131106185158Z " fill="#8bd8bd" transform="matrix(0.5985894932156961,0,0,0.5985894932156961,0,61.93308708096873)"/><path d="M628.7657459924993 470.2850915727458L628.7657459924993 470.2850915727458Q626.1118783651389 470.2850915727458 626.1118783651389 467.03833862437926L626.1118783651389 467.03833862437926Q626.1118783651389 464.38447099701875 628.7657459924993 464.38447099701875L628.7657459924993 464.38447099701875Q641.1598724649594 464.38447099701875 644.8018822939966 461.53297492932296Q648.4721247573675 458.70971149596073 648.4721247573675 451.9903445245587L648.4721247573675 451.9903445245587L648.4721247573675 340.584369444086Q648.4721247573675 336.9423596150488 647.4557499213572 334.20379408468744Q646.4393750853467 331.4369959199925 642.2609452039707 329.9124336659769Q638.1107479569282 328.38787141196127 628.1446280371597 328.38787141196127L628.1446280371597 328.38787141196127Q625.4907604097991 328.38787141196127 625.4907604097991 325.33874690393014L625.4907604097991 325.33874690393014Q625.4907604097991 322.71311191090325 628.1446280371597 322.71311191090325L628.1446280371597 322.71311191090325Q629.9797492688451 322.71311191090325 646.044118204676 322.91074035123864Q662.0802545061733 323.108368791574 688.929489757448 323.108368791574L688.929489757448 323.108368791574Q714.5364890980431 323.108368791574 728.2575493841834 322.91074035123864Q741.9786096703239 322.71311191090325 743.390241387005 322.71311191090325L743.390241387005 322.71311191090325Q748.4721155670569 322.71311191090325 748.6979766417259 327.3714965759509L748.6979766417259 327.3714965759509Q748.6979766417259 328.8113609269656 748.980302985062 333.4697455920133Q749.2908619627319 338.1563628913945 749.4884904030673 343.8593550267862Q749.7143514777363 349.5341145278442 749.9119799180717 353.91017284955564Q750.109608358407 358.28623117126705 750.109608358407 359.10497756694207L750.109608358407 359.10497756694207Q750.109608358407 359.69786288794813 749.7990493807372 360.71423772395855Q749.4884904030673 361.73061255996896 748.0768586863862 361.73061255996896L748.0768586863862 361.73061255996896Q746.665226969705 361.73061255996896 745.84648057403 361.4200535822991Q745.027734178355 361.1377272389629 744.20898778268 359.5002344476128L744.20898778268 359.5002344476128Q742.7973560659989 356.2534814992463 740.3411168789737 351.1716073191943Q737.9131103262822 346.0897331391423 734.1581699599105 341.00785895909036Q730.4032295935388 335.9259847790384 725.0107964358169 332.45337075600287Q719.6183632780951 329.008989367301 712.1084825453516 329.008989367301L712.1084825453516 329.008989367301L673.0627492619524 329.008989367301L673.0627492619524 390.38673640859537L688.3083718021082 390.38673640859537Q696.6369989305267 390.38673640859537 701.1259877895727 386.94235501989345Q705.5867440142849 383.49797363119154 707.9300526639756 378.69842579447584Q710.2733613136662 373.9271105920937 711.8826214706827 369.66398280771676L711.8826214706827 369.66398280771676Q712.306110985687 368.449979531371 712.8989963066931 367.74416367303047Q713.5201142620328 367.0101151803563 714.9317459787139 367.0101151803563L714.9317459787139 367.0101151803563Q716.3716103297286 367.0101151803563 716.8797977477338 368.02649001636667Q717.387985165739 369.0428648523771 717.387985165739 370.28510076305645L717.387985165739 370.28510076305645Q717.387985165739 371.69673247973753 717.2750546284045 375.8751623611136Q717.1903567254036 380.02535960815607 717.0774261880691 385.02253588520716Q716.9644956507346 389.99147952792464 716.9644956507346 394.05697887196624L716.9644956507346 394.05697887196624L716.9644956507346 418.8452318168864Q716.9644956507346 419.8616066528968 716.6821693073985 420.87798148890715Q716.3716103297286 421.89435632491757 714.9317459787139 421.89435632491757L714.9317459787139 421.89435632491757Q713.5201142620328 421.89435632491757 712.8989963066931 421.10384256357617Q712.306110985687 420.28509616790114 711.6849930303473 418.8452318168864L711.6849930303473 418.8452318168864Q710.2733613136662 415.20322198784913 708.0429832013101 410.1213478077972Q705.7843724546203 405.03947362774517 701.3236162299081 401.0586721867045Q696.8628600051958 397.10610337999736 688.3083718021082 397.10610337999736L688.3083718021082 397.10610337999736L673.0627492619524 397.10610337999736L673.0627492619524 451.9903445245587Q673.0627492619524 456.451100749271 674.502613612967 459.21789891396594Q675.9142453296481 461.9564644443273 680.6008626290295 463.170467720673Q685.2592472940771 464.38447099701875 694.830110333175 464.38447099701875L694.830110333175 464.38447099701875Q697.4557453262018 464.38447099701875 697.4557453262018 467.03833862437926L697.4557453262018 467.03833862437926Q697.4557453262018 470.2850915727458 694.830110333175 470.2850915727458L694.830110333175 470.2850915727458Q692.7973606611542 470.2850915727458 683.1417997190554 469.9745325950759Q673.4862387769567 469.6639736174061 660.8662512298276 469.6639736174061L660.8662512298276 469.6639736174061Q648.0768678766968 469.6639736174061 639.4376817706085 469.9745325950759Q630.7984956645201 470.2850915727458 628.7657459924993 470.2850915727458ZM788.5342236864666 472.7130981254373L788.5342236864666 472.7130981254373Q773.8814864673168 472.7130981254373 763.1248527862067 466.10666169136977Q752.339986470763 459.50022525730213 746.4393658950361 448.1224736208525Q740.5669779536427 436.74472198440276 740.5669779536427 422.1202173995866L740.5669779536427 422.1202173995866Q740.5669779536427 407.46748018043667 746.4393658950361 396.089728543987Q752.339986470763 384.7119769075373 763.1248527862067 378.19023837647063Q773.8814864673168 371.69673247973753 788.5342236864666 371.69673247973753L788.5342236864666 371.69673247973753Q803.1587282712828 371.69673247973753 813.830664049392 378.19023837647063Q824.5025998275012 384.7119769075373 830.403220403228 396.089728543987Q836.3038409789551 407.46748018043667 836.3038409789551 422.1202173995866L836.3038409789551 422.1202173995866Q836.3038409789551 436.74472198440276 830.403220403228 448.1224736208525Q824.5025998275012 459.50022525730213 813.830664049392 466.10666169136977Q803.1587282712828 472.7130981254373 788.5342236864666 472.7130981254373ZM788.5342236864666 465.82433534803346L788.5342236864666 465.82433534803346Q801.125978599262 465.82433534803346 806.7160401973192 453.71253521890964Q812.3061017953763 441.6289677241194 812.3061017953763 422.1202173995866L812.3061017953763 422.1202173995866Q812.3061017953763 402.80909551538906 806.7160401973192 390.6972953862652Q801.125978599262 378.6137278914749 788.5342236864666 378.6137278914749L788.5342236864666 378.6137278914749Q775.9142361393375 378.6137278914749 770.2394766382795 390.6972953862652Q764.5364845028878 402.80909551538906 764.5364845028878 422.1202173995866L764.5364845028878 422.1202173995866Q764.5364845028878 441.6289677241194 770.2394766382795 453.71253521890964Q775.9142361393375 465.82433534803346 788.5342236864666 465.82433534803346ZM852.7634667954568 470.2850915727458L852.7634667954568 470.2850915727458Q849.7143422874256 470.2850915727458 849.7143422874256 466.84071018404387L849.7143422874256 466.84071018404387Q849.7143422874256 463.56572460134373 852.7634667954568 463.56572460134373L852.7634667954568 463.56572460134373Q861.0920939238753 463.56572460134373 865.1575932679168 460.51660009331255Q869.2230926119585 457.46747558528136 869.2230926119585 450.15522329287325L869.2230926119585 450.15522329287325L869.2230926119585 392.0242291999454Q869.2230926119585 387.56347297523314 868.3196483132825 385.30486222854336Q867.387971380273 383.07448411618725 864.5647079469109 382.6792272355165L864.5647079469109 382.6792272355165Q863.5483331109004 382.4815987951812 860.6968370432046 382.1710398175113Q857.8453409755087 381.8604808398415 855.1067754451474 381.6628523995061Q852.3682099147861 381.46522395917077 851.3518350787757 381.2393628845018L851.3518350787757 381.2393628845018Q848.5003390110799 380.64647756349575 848.5003390110799 377.99260993613524L848.5003390110799 377.99260993613524Q848.5003390110799 374.5482285474334 851.549463519111 374.5482285474334L851.549463519111 374.5482285474334Q852.1423488401172 374.5482285474334 856.9418966768328 374.43529801009885Q861.713211879215 374.35060010709805 867.6985303579429 374.35060010709805Q873.7120814710044 374.35060010709805 878.6810251137218 374.2376695697635Q883.6499687564393 374.12473903242903 884.8922046671187 374.12473903242903L884.8922046671187 374.12473903242903Q889.9740788471706 374.12473903242903 889.9740788471706 379.43247428715L889.9740788471706 379.43247428715L889.9740788471706 394.05697887196624Q892.7973422805328 389.1727331322496 897.4839595799142 384.00616104919675Q902.1705768792954 378.8113563318103 908.3535237983585 375.2540444057739Q914.5647033517555 371.69673247973753 922.074584084499 371.69673247973753L922.074584084499 371.69673247973753Q933.875825235953 371.69673247973753 939.550584737011 376.58097821945415Q945.2535768724026 381.46522395917077 945.2535768724026 389.1727331322496L945.2535768724026 389.1727331322496Q945.2535768724026 393.6617219912955 941.8938933867016 398.23540875334226Q938.5342099010006 402.80909551538906 931.8430755639322 402.80909551538906L931.8430755639322 402.80909551538906Q924.3049621968551 402.80909551538906 921.5663966664938 398.8282940743483Q918.8278311361324 394.87572526764126 918.8278311361324 391.00785436393505L918.8278311361324 391.00785436393505Q918.8278311361324 386.94235501989345 917.6138278597866 385.2201643255425Q916.3998245834409 383.49797363119154 913.3507000754098 383.49797363119154L913.3507000754098 383.49797363119154Q908.0429648206888 383.49797363119154 902.8763927376359 388.57984781124355Q897.6815880202495 393.6617219912955 894.3219045345485 401.67979014204417Q890.990453683181 409.69785829279283 890.990453683181 419.07109289155534L890.990453683181 419.07109289155534L890.990453683181 449.7599664122026Q890.990453683181 457.46747558528136 895.7617688855632 460.51660009331255Q900.5330840879453 463.56572460134373 907.8453363803535 463.56572460134373L907.8453363803535 463.56572460134373Q911.09208932872 463.56572460134373 911.09208932872 466.84071018404387L911.09208932872 466.84071018404387Q911.09208932872 470.2850915727458 907.8453363803535 470.2850915727458L907.8453363803535 470.2850915727458Q905.8125867083327 470.2850915727458 898.38740387859 469.9745325950759Q890.990453683181 469.6639736174061 880.0079589274021 469.6639736174061L880.0079589274021 469.6639736174061Q870.6629569629731 469.6639736174061 862.8142846182262 469.9745325950759Q854.9938449078129 470.2850915727458 852.7634667954568 470.2850915727458ZM958.6640781808732 470.2850915727458L958.6640781808732 470.2850915727458Q955.6149536728419 470.2850915727458 955.6149536728419 466.84071018404387L955.6149536728419 466.84071018404387Q955.6149536728419 463.56572460134373 958.6640781808732 463.56572460134373L958.6640781808732 463.56572460134373Q965.5810735926106 463.56572460134373 968.1220106826365 460.51660009331255Q970.6629477726625 457.46747558528136 970.6629477726625 450.15522329287325L970.6629477726625 450.15522329287325L970.6629477726625 391.62897231927474Q970.6629477726625 387.3376119005642 970.0418298173229 384.9096053478727Q969.4489444963167 382.4815987951812 966.7950768689564 382.2557377205122L966.7950768689564 382.2557377205122Q965.3834451522753 382.05810928017684 962.5319490845793 381.6628523995061Q959.6804530168836 381.2393628845018 958.2688213002025 381.0417344441664L958.2688213002025 381.0417344441664Q955.4173252325065 380.64647756349575 955.4173252325065 377.7949814957999L955.4173252325065 377.7949814957999Q955.4173252325065 374.5482285474334 958.4664497405379 374.5482285474334L958.4664497405379 374.5482285474334Q959.0875676958774 374.5482285474334 963.0401365025846 374.43529801009885Q966.9927053092916 374.35060010709805 971.9898815863428 374.35060010709805Q976.9588252290603 374.35060010709805 981.1372551104363 374.2376695697635Q985.2874523574787 374.12473903242903 986.5296882681581 374.12473903242903L986.5296882681581 374.12473903242903Q991.6115624482102 374.12473903242903 991.6115624482102 379.43247428715L991.6115624482102 379.43247428715L991.6115624482102 389.99147952792464Q994.0395690009016 385.92598018388304 997.596880926938 381.747550302507Q1001.1541928529743 377.59735305546457 1006.3489975703608 374.63292645043424Q1011.5155696534136 371.69673247973753 1019.0536830204908 371.69673247973753L1019.0536830204908 371.69673247973753Q1025.5471889172238 371.69673247973753 1031.8430663736217 373.6165516144238Q1038.1389438300193 375.5646033834438 1042.712630592066 380.02535960815607Q1047.2863173541127 384.51434846720196 1048.3026921901233 392.41948608061614L1048.3026921901233 392.41948608061614Q1049.742556541138 389.1727331322496 1052.87637895217 384.288487392533Q1056.0384339975358 379.43247428715 1061.9390545732626 375.5646033834438Q1067.8396751489897 371.69673247973753 1076.9870486730833 371.69673247973753L1076.9870486730833 371.69673247973753Q1090.9904353025597 371.69673247973753 1098.9238055503076 379.00898477214565Q1106.8571757980553 386.32123706455377 1106.8571757980553 402.5832344407201L1106.8571757980553 402.5832344407201L1106.8571757980553 449.7599664122026Q1106.8571757980553 457.46747558528136 1109.0875539104115 460.51660009331255Q1111.3179320227678 463.56572460134373 1115.1858029264738 463.56572460134373L1115.1858029264738 463.56572460134373Q1118.4325558748403 463.56572460134373 1118.4325558748403 466.84071018404387L1118.4325558748403 466.84071018404387Q1118.4325558748403 470.2850915727458 1115.1858029264738 470.2850915727458L1115.1858029264738 470.2850915727458Q1112.9554248141176 470.2850915727458 1107.0548042383907 469.9745325950759Q1101.1541836626636 469.6639736174061 1095.8746810422763 469.6639736174061L1095.8746810422763 469.6639736174061Q1092.4302996535744 469.6639736174061 1088.054241331863 469.7769041547406Q1083.6781830101515 469.8898346920751 1080.0361731811145 470.0874631324104Q1076.3659307177436 470.2850915727458 1074.7284379263933 470.2850915727458L1074.7284379263933 470.2850915727458Q1071.6793134183622 470.2850915727458 1071.6793134183622 466.84071018404387L1071.6793134183622 466.84071018404387Q1071.6793134183622 463.56572460134373 1074.7284379263933 463.56572460134373L1074.7284379263933 463.56572460134373Q1080.4314300617852 463.56572460134373 1082.6618081741412 460.51660009331255Q1084.8921862864972 457.46747558528136 1084.8921862864972 450.15522329287325L1084.8921862864972 450.15522329287325L1084.8921862864972 406.0558484637556Q1084.8921862864972 394.05697887196624 1081.2501764574602 389.37036157258495Q1077.5799339940893 384.7119769075373 1069.8724248210106 384.7119769075373L1069.8724248210106 384.7119769075373Q1064.1694326856189 384.7119769075373 1059.595745923572 388.57984781124355Q1055.0220591615252 392.41948608061614 1052.283493631164 398.9412246116828Q1049.5449281008025 405.4347305084159 1049.5449281008025 413.17047231582836L1049.5449281008025 413.17047231582836L1049.5449281008025 449.7599664122026Q1049.5449281008025 457.46747558528136 1052.0858651908286 460.51660009331255Q1054.6268022808545 463.56572460134373 1059.7086764609066 463.56572460134373L1059.7086764609066 463.56572460134373Q1062.9554294092732 463.56572460134373 1062.9554294092732 466.84071018404387L1062.9554294092732 466.84071018404387Q1062.9554294092732 470.2850915727458 1059.7086764609066 470.2850915727458L1059.7086764609066 470.2850915727458Q1058.2688121098918 470.2850915727458 1054.5138717435202 470.0874631324104Q1050.7589313771482 469.8898346920751 1046.4958035927714 469.7769041547406Q1042.2044431740608 469.6639736174061 1038.5624333450237 469.6639736174061L1038.5624333450237 469.6639736174061Q1035.0898193219882 469.6639736174061 1030.4314346569404 469.7769041547406Q1025.7448173575592 469.8898346920751 1021.876946453853 470.0874631324104Q1018.0373081844803 470.2850915727458 1016.3998153931302 470.2850915727458L1016.3998153931302 470.2850915727458Q1013.3506908850991 470.2850915727458 1013.3506908850991 466.84071018404387L1013.3506908850991 466.84071018404387Q1013.3506908850991 463.56572460134373 1016.3998153931302 463.56572460134373L1016.3998153931302 463.56572460134373Q1022.8933212898633 463.56572460134373 1025.236629939554 460.51660009331255Q1027.5799385892446 457.46747558528136 1027.5799385892446 450.15522329287325L1027.5799385892446 450.15522329287325L1027.5799385892446 406.0558484637556Q1027.5799385892446 394.4522357526369 1023.514439245203 389.37036157258495Q1019.4489399011615 384.288487392533 1011.713198093749 384.288487392533L1011.713198093749 384.288487392533Q1003.1869425249952 384.288487392533 997.9074399046078 391.31841334160487Q992.6279372842205 398.32010665634317 992.6279372842205 408.90734453145143L992.6279372842205 408.90734453145143L992.6279372842205 449.7599664122026Q992.6279372842205 457.46747558528136 995.2535722772473 460.51660009331255Q997.9074399046078 463.56572460134373 1003.3845709653305 463.56572460134373L1003.3845709653305 463.56572460134373Q1006.4336954733617 463.56572460134373 1006.4336954733617 466.84071018404387L1006.4336954733617 466.84071018404387Q1006.4336954733617 470.2850915727458 1003.3845709653305 470.2850915727458L1003.3845709653305 470.2850915727458Q1001.9729392486494 470.2850915727458 998.1050683449432 470.0874631324104Q994.237197441237 469.8898346920751 989.7764412165246 469.7769041547406Q985.2874523574787 469.6639736174061 981.6454425284414 469.6639736174061L981.6454425284414 469.6639736174061Q978.172828505406 469.6639736174061 973.316815400023 469.7769041547406Q968.4325696603064 469.8898346920751 964.3670703162647 470.0874631324104Q960.3015709722232 470.2850915727458 958.6640781808732 470.2850915727458ZM1163.1530486592978 472.7130981254373L1163.1530486592978 472.7130981254373Q1149.9401757911626 472.7130981254373 1141.3009896850745 466.6148491093749Q1132.661803578986 460.51660009331255 1132.661803578986 446.28735238916704L1132.661803578986 446.28735238916704Q1132.661803578986 434.31671543171126 1140.0869864087285 426.46804308696437Q1147.5121692384712 418.64760337655105 1160.9226705469416 414.89266301017926Q1174.3331718554123 411.13772264380754 1192.2326620229285 411.3353510841429L1192.2326620229285 411.3353510841429L1192.2326620229285 403.4019808363951Q1192.2326620229285 392.41948608061614 1188.3647911192222 386.0389107212175Q1184.4969202155162 379.63010272748534 1175.970664646762 379.63010272748534L1175.970664646762 379.63010272748534Q1168.0372943990144 379.63010272748534 1163.9717950549727 382.56629669818204Q1159.9062957109313 385.53072330321237 1161.939045382952 390.18910796826L1161.939045382952 390.18910796826Q1165.1857983313184 397.10610337999736 1161.7414169426165 402.4985365377192Q1158.2970355539146 407.890969695441 1149.9401757911626 407.890969695441L1149.9401757911626 407.890969695441Q1144.8583016111106 407.890969695441 1141.4139202224087 404.53128620974Q1137.9695388337068 401.17160272403896 1137.9695388337068 395.0733537079766L1137.9695388337068 395.0733537079766Q1137.9695388337068 388.9751046919142 1143.0514130137587 383.69560207152693Q1148.1332871938107 378.4160994511396 1156.9701017402344 375.0564159654386Q1165.8069162866582 371.69673247973753 1176.9870394827726 371.69673247973753L1176.9870394827726 371.69673247973753Q1195.4794149712952 371.69673247973753 1204.824416935724 379.8277311678207Q1214.1976515344863 387.95872985590387 1214.1976515344863 402.1879775600494L1214.1976515344863 402.1879775600494L1214.1976515344863 445.2709775531566Q1214.1976515344863 453.40197624123977 1215.9198422288373 455.7452848909304Q1217.6420329231883 458.08859354062105 1220.2959005505488 458.08859354062105L1220.2959005505488 458.08859354062105Q1222.3286502225696 458.08859354062105 1223.8532124765852 457.3827776822805Q1225.3777747306008 456.67696182393996 1226.1682884919423 455.85821542826494L1226.1682884919423 455.85821542826494Q1228.426899238632 453.6278373159088 1230.657277350988 456.0558438686003L1230.657277350988 456.0558438686003Q1231.6736521869984 457.07221870461063 1231.476023746663 458.28622198095644Q1231.250162671994 459.50022525730213 1230.4596489106527 460.7424611679815L1230.4596489106527 460.7424611679815Q1227.608152842957 465.4008458330292 1223.4297229615809 468.5629008783948Q1219.2795257145385 471.69672328942687 1213.3789051388114 471.69672328942687L1213.3789051388114 471.69672328942687Q1205.8407917717343 471.69672328942687 1200.6742196886814 467.8570850200543Q1195.4794149712952 463.9892141163481 1193.4466652992742 455.85821542826494L1193.4466652992742 455.85821542826494Q1189.8046554702369 462.5493497653334 1182.9723579615006 467.63122394538533Q1176.1682930870975 472.7130981254373 1163.1530486592978 472.7130981254373ZM1173.3167970194017 460.51660009331255L1173.3167970194017 460.51660009331255Q1179.2174175951286 460.51660009331255 1183.4805453795057 457.1851492419451Q1187.7719057982163 453.8254657562441 1190.0022839105723 449.13884845686283Q1192.2326620229285 444.4804637918152 1192.2326620229285 440.1891033731047L1192.2326620229285 440.1891033731047L1192.2326620229285 418.4499749362157Q1176.1682930870975 418.054718055545 1166.428034241998 423.53184911626767Q1156.6595427625648 429.00898017699035 1156.6595427625648 442.8429710004651L1156.6595427625648 442.8429710004651Q1156.6595427625648 450.776341248213 1159.708667270596 454.53128161458466Q1162.757791778627 458.28622198095644 1166.7103605853342 459.4155273543013Q1170.691162026375 460.51660009331255 1173.3167970194017 460.51660009331255ZM1278.0034051284722 472.7130981254373L1278.0034051284722 472.7130981254373Q1269.2795211193832 472.7130981254373 1262.7577825883166 468.64759878139574Q1256.2642766915835 464.5820994373541 1256.2642766915835 453.40197624123977L1256.2642766915835 453.40197624123977L1256.2642766915835 382.05810928017684L1242.0350289874377 382.05810928017684Q1238.7882760390712 382.05810928017684 1238.7882760390712 378.8113563318103L1238.7882760390712 378.8113563318103L1238.7882760390712 378.19023837647063Q1238.7882760390712 376.77860665978955 1239.6917203377473 376.07279080144895Q1240.6233972707566 375.3669749431084 1242.0350289874377 374.94348542810405L1242.0350289874377 374.94348542810405Q1253.8362701388917 370.8779860840625 1260.2168454982905 362.66228949297846Q1266.6256534920226 354.41836026756084 1268.2631462833726 339.56799460807565L1268.2631462833726 339.56799460807565Q1268.2631462833726 336.3212416597091 1271.5098992317392 336.3212416597091L1271.5098992317392 336.3212416597091L1274.954280620441 336.3212416597091Q1276.1965165311206 336.3212416597091 1277.212891367131 337.25291859271863Q1278.2292662031414 338.1563628913945 1278.2292662031414 339.56799460807565L1278.2292662031414 339.56799460807565L1278.2292662031414 374.12473903242903L1303.0175191480614 374.12473903242903Q1306.264272096428 374.12473903242903 1306.264272096428 377.1738635404602L1306.264272096428 377.1738635404602L1306.264272096428 378.8113563318103Q1306.264272096428 382.05810928017684 1303.0175191480614 382.05810928017684L1303.0175191480614 382.05810928017684L1278.2292662031414 382.05810928017684L1278.2292662031414 446.28735238916704Q1278.2292662031414 457.46747558528136 1289.8046462799264 457.46747558528136L1289.8046462799264 457.46747558528136Q1295.2817773406491 457.46747558528136 1299.6578356623604 454.22072263691484Q1304.033893984072 450.97396968854827 1306.264272096428 446.71084190417133L1306.264272096428 446.71084190417133Q1307.9017648877782 443.6617173961402 1311.34614627648 445.694467068161L1311.34614627648 445.694467068161Q1312.7860106274945 446.513213463836 1312.7860106274945 447.72721674018175Q1312.7860106274945 448.9412200165275 1312.164892672155 450.5787128078776L1312.164892672155 450.5787128078776Q1308.720511283453 459.3025968169668 1300.2789536177002 466.02196378836885Q1291.8373959519472 472.7130981254373 1278.0034051284722 472.7130981254373ZM1322.5262694725943 470.2850915727458L1322.5262694725943 470.2850915727458Q1319.6747734048984 470.2850915727458 1319.6747734048984 467.63122394538533L1319.6747734048984 467.63122394538533Q1319.6747734048984 464.38447099701875 1322.5262694725943 464.38447099701875L1322.5262694725943 464.38447099701875Q1328.4268900483214 464.38447099701875 1333.1982052507035 462.5493497653334Q1337.9695204530856 460.7424611679815 1342.9666967301366 455.85821542826494Q1347.935640372854 450.97396968854827 1354.2315178292517 441.6289677241194L1354.2315178292517 441.6289677241194Q1355.869010620602 439.1727285370943 1359.1157635689685 434.4014133347121Q1362.362516517335 429.63009813233003 1366.3433179583756 423.729477556603Q1370.295886765083 417.82885698087597 1374.163757668789 412.04116694248347Q1378.0316285724953 406.253476904091 1380.6572635655223 402.1879775600494L1380.6572635655223 402.1879775600494Q1372.3286364371036 387.3376119005642 1365.2140125850308 375.6493012864446Q1358.099388732958 363.9609906723251 1353.6386325082458 356.7616689172515Q1349.1496436492 349.5341145278442 1348.5567583281938 348.5177396918338L1348.5567583281938 348.5177396918338Q1342.8537661928024 338.77748084673425 1337.7718920127502 333.69560666668224Q1332.6900178326985 328.6137324866303 1326.3941403763004 328.6137324866303L1326.3941403763004 328.6137324866303Q1325.180137099955 328.6137324866303 1324.4743212416142 327.6820555536207Q1323.74027274894 326.77861125494485 1323.74027274894 325.76223641893444L1323.74027274894 325.76223641893444Q1323.74027274894 322.71311191090325 1326.3941403763004 322.71311191090325L1326.3941403763004 322.71311191090325Q1327.8057720929817 322.71311191090325 1331.9842019743576 322.91074035123864Q1336.1626318557337 323.108368791574 1341.6397629164564 323.22129932890846Q1347.1168939771792 323.3059972319093 1352.4246292319 323.3059972319093L1352.4246292319 323.3059972319093Q1358.2970171732936 323.3059972319093 1363.8870787713506 323.22129932890846Q1369.4771403694078 323.108368791574 1373.4579418104483 322.91074035123864Q1377.4105106171558 322.71311191090325 1378.426885453166 322.71311191090325L1378.426885453166 322.71311191090325Q1381.278381520862 322.71311191090325 1381.278381520862 325.76223641893444L1381.278381520862 325.76223641893444Q1381.278381520862 326.77861125494485 1380.5725656625214 327.6820555536207Q1379.8667498041807 328.6137324866303 1378.426885453166 328.6137324866303L1378.426885453166 328.6137324866303Q1370.4935152054184 328.6137324866303 1369.4771403694078 331.0417390393218Q1368.4607655333973 333.4697455920133 1371.5098900414284 338.9751092870696L1371.5098900414284 338.9751092870696Q1372.1310079967682 339.7938556827446 1375.57538938547 345.58154572113716Q1379.0480034085056 351.36923575952966 1384.5251344692283 360.1213524029525Q1390.0304981642846 368.84523641204174 1396.3263756206823 378.8113563318103L1396.3263756206823 378.8113563318103Q1401.6058782410698 371.3014755990668 1406.377193443452 364.0739212096596Q1411.148508645834 356.84636682025234 1414.508192131535 351.87742317753487Q1417.867875617236 346.90847953481733 1418.2631324979068 346.0897331391423L1418.2631324979068 346.0897331391423Q1421.9333749612777 339.56799460807565 1419.081878893582 334.09086354735297Q1416.230382825886 328.6137324866303 1407.704127257132 328.6137324866303L1407.704127257132 328.6137324866303Q1406.292495540451 328.6137324866303 1405.473749144776 327.6820555536207Q1404.655002749101 326.77861125494485 1404.655002749101 325.76223641893444L1404.655002749101 325.76223641893444Q1404.655002749101 322.71311191090325 1407.704127257132 322.71311191090325L1407.704127257132 322.71311191090325Q1409.5392484888175 322.71311191090325 1415.3269385272101 323.0236708885731Q1421.1146285656025 323.3059972319093 1430.8831200450359 323.3059972319093L1430.8831200450359 323.3059972319093Q1439.832865128794 323.3059972319093 1445.1123677491814 323.0236708885731Q1450.3918703695686 322.71311191090325 1452.4246200415894 322.71311191090325L1452.4246200415894 322.71311191090325Q1455.276116109285 322.71311191090325 1455.276116109285 325.76223641893444L1455.276116109285 325.76223641893444Q1455.276116109285 326.77861125494485 1454.5703002509447 327.6820555536207Q1453.8362517582707 328.6137324866303 1452.4246200415894 328.6137324866303L1452.4246200415894 328.6137324866303Q1445.507624629852 328.6137324866303 1438.8164902927836 333.58267612934776Q1432.0971233213816 338.55161977206524 1426.8176207009942 346.6826184601484L1426.8176207009942 346.6826184601484Q1424.1637530736336 350.55048936385464 1417.5573166395661 360.91186616429394Q1410.9508802054986 371.3014755990668 1400.7871318453947 386.32123706455377L1400.7871318453947 386.32123706455377Q1408.3252452124718 398.32010665634317 1415.2140079898754 409.8107888301273Q1422.131003401613 421.3014710039115 1427.7210649996703 430.3359139906706Q1433.3111265977275 439.39858961176327 1436.3602511057586 443.85934583647554L1436.3602511057586 443.85934583647554Q1441.8656148008147 451.9903445245587 1447.3427458615374 458.2015240779555Q1452.8198769222602 464.38447099701875 1458.720497497987 464.38447099701875L1458.720497497987 464.38447099701875Q1461.7696220060184 464.38447099701875 1461.7696220060184 467.63122394538533L1461.7696220060184 467.63122394538533Q1461.7696220060184 470.2850915727458 1458.720497497987 470.2850915727458L1458.720497497987 470.2850915727458Q1456.6877478259664 470.2850915727458 1449.3754955335583 470.0874631324104Q1442.06324324115 469.8898346920751 1434.3275014337376 469.8898346920751L1434.3275014337376 469.8898346920751Q1428.4268808580107 469.8898346920751 1422.2439339389475 469.9745325950759Q1416.0327543855506 470.0874631324104 1411.5719981608381 470.1721610354113Q1407.0830093017923 470.2850915727458 1406.0666344657818 470.2850915727458L1406.0666344657818 470.2850915727458Q1403.2433710324196 470.2850915727458 1403.2433710324196 467.63122394538533L1403.2433710324196 467.63122394538533Q1403.2433710324196 464.38447099701875 1406.0666344657818 464.38447099701875L1406.0666344657818 464.38447099701875Q1413.6047478328592 464.38447099701875 1414.7058205718702 461.7588360039919Q1415.8351259452154 459.10496837663146 1412.5883729968486 453.8254657562441L1412.5883729968486 453.8254657562441Q1409.1157589738134 447.92484518051714 1404.5420722117665 440.4996623507745Q1399.9683854497196 433.0744795210319 1395.7052576653427 426.1857167436281Q1391.4421298809657 419.26872133189073 1388.505935910269 414.4974061295086Q1385.5415093052388 409.69785829279283 1385.3438808649034 409.10497297178676L1385.3438808649034 409.10497297178676Q1380.4596351251869 416.0219683835242 1375.6883199228046 423.13659223559694Q1370.9170047204227 430.2512160876697 1367.0491338167162 436.0389061260622Q1363.1812629130102 441.82659616445477 1360.9508848006542 445.2709775531566L1360.9508848006542 445.2709775531566Q1357.506503411952 450.5787128078776 1358.5228782479624 454.9265384952554Q1359.5392530839729 459.3025968169668 1363.1812629130102 461.8435339069928Q1366.851505376381 464.38447099701875 1371.5098900414284 464.38447099701875L1371.5098900414284 464.38447099701875Q1374.55901454946 464.38447099701875 1374.55901454946 467.63122394538533L1374.55901454946 467.63122394538533Q1374.55901454946 470.2850915727458 1371.5098900414284 470.2850915727458L1371.5098900414284 470.2850915727458Q1369.7030014440768 470.2850915727458 1363.4918218906798 470.0874631324104Q1357.280642337283 469.8898346920751 1347.7380119325187 469.8898346920751L1347.7380119325187 469.8898346920751Q1338.7882668487607 469.8898346920751 1331.673642996688 470.0874631324104Q1324.5590191446151 470.2850915727458 1322.5262694725943 470.2850915727458Z " fill="#243665" transform="matrix(0.5985894932156961,0,0,0.5985894932156961,0,61.93308708096873)"/></g></svg>